# xmcd
#
# Track frame offsets: 
#        150
#        22462
#        46242
#
# Disc length: 990 seconds
#
# Revision: 0
# Processed by: cddbd v1.5.1PL0 Copyright (c) Steve Scherf et al.
# Submitted via: ExactAudioCopy v0.95a5
#
DISCID=2303dc03
DTITLE=John Campbell - Down In The Hole
DYEAR=1993
DGENRE=Blues
TTITLE0=Down in the Hole
TTITLE1=Ain't Afraid of Midnight
TTITLE2=When The LEvee Breaks
EXTD=
EXTT0=
EXTT1=
EXTT2=
PLAYORDER=
